<svg width="21" height="22" viewBox="0 0 21 22" fill="none" xmlns="http://www.w3.org/2000/svg">
<path d="M20.8851 8.99704H10.7095V13.4981H16.4757C15.555 16.4987 13.2776 17.499 10.661 17.499C9.64785 17.5003 8.6493 17.2494 7.7501 16.7675C6.85089 16.2857 6.07758 15.587 5.49577 14.7309C4.91396 13.8748 4.54082 12.8864 4.40801 11.8497C4.2752 10.813 4.38664 9.75857 4.73287 8.7758C5.0791 7.79303 5.6499 6.91096 6.39686 6.20442C7.14381 5.49789 8.04487 4.98774 9.02358 4.71726C10.0023 4.44679 11.0298 4.42396 12.0189 4.65073C13.0079 4.87749 13.9294 5.34716 14.7051 6.01987L17.8741 2.90516C16.598 1.69332 15.0547 0.821162 13.3781 0.364345C11.7014 -0.0924719 9.94212 -0.120145 8.25278 0.283726C6.56343 0.687597 4.99508 1.51081 3.6838 2.68195C2.37251 3.85309 1.35791 5.33677 0.728009 7.00427C0.0981102 8.67177 -0.128055 10.4727 0.0691354 12.2509C0.266326 14.029 0.880916 15.7306 1.85958 17.2081C2.83825 18.6856 4.15143 19.8943 5.68519 20.7293C7.21896 21.5644 8.92697 22.0005 10.661 22C16.5392 22 21.8542 17.9991 20.8851 8.99704Z" fill="white"/>
</svg>
