<svg viewBox="0 0 265 79" fill="none" xmlns="http://www.w3.org/2000/svg">
<path d="M37.2215 60.2125C35.0761 64.8608 31.1627 67.8108 29.4742 68.7047C24.1108 75.856 39.9467 78.0225 47.6754 73.5258C55.8695 68.7583 68.0614 56.4879 57.4835 48.4427C46.9055 40.3975 39.9032 54.4021 37.2215 60.2125Z" fill="url(#paint0_linear)"/>
<path fill-rule="evenodd" clip-rule="evenodd" d="M60.9052 59.5291C48.1475 67.4059 37.8832 68.6519 31.9321 66.9936C30.9517 67.8119 30.0731 68.3875 29.4742 68.7045C24.1108 75.8558 39.9467 78.0224 47.6754 73.5257C52.5476 70.6909 58.8332 65.2036 60.9052 59.5291Z" fill="url(#paint1_linear)"/>
<path fill-rule="evenodd" clip-rule="evenodd" d="M51.0994 46.0112C44.065 46.0987 39.3198 55.6651 37.221 60.2125C35.0756 64.8608 31.1623 67.8108 29.4738 68.7047C29.0221 69.3069 28.7207 69.8738 28.5522 70.4044C40.8534 73.1455 57.5373 63.216 51.0994 46.0112Z" fill="url(#paint2_linear)"/>
<path d="M22.6211 22.0723C27.7462 18.9734 37.6686 17.6027 41.9892 17.3047L47.9485 15.6659V4.49198L41.0952 2.55518L32.7521 4.49198C27.2396 11.6433 17.496 25.1711 22.6211 22.0723Z" fill="#9FFAFA"/>
<path fill-rule="evenodd" clip-rule="evenodd" d="M47.7996 73.4723C36.9237 74.1179 14.2158 67.1496 19.7904 35.481C26.7926 -4.29802 47.7996 2.13348 46.3097 8.21675C44.4123 15.964 34.9869 29.8196 34.9869 29.8196C34.9869 29.8196 43.0826 36.4351 50.357 35.481C59.4451 34.2892 69.9846 18.3867 57.1857 6.72689C51.5207 1.56603 44.504 -0.430073 37.5262 0.0761295H0C0 3.20286 2.53471 5.73757 5.66144 5.73757H5.95941C5.95941 8.37061 8.09391 10.5051 10.7269 10.5051H15.9478C8.22019 18.6662 -6.19886 47.6578 3.27761 65.2781C12.8127 83.0073 38.4136 79.2827 47.7996 73.4723Z" fill="url(#paint3_linear)"/>
<mask id="mask0" mask-type="alpha" maskUnits="userSpaceOnUse" x="0" y="0" width="64" height="79">
<path fill-rule="evenodd" clip-rule="evenodd" d="M47.7996 73.4723C36.9237 74.1179 14.2158 67.1496 19.7904 35.481C26.7926 -4.29802 47.7996 2.13348 46.3097 8.21675C44.4123 15.964 34.9869 29.8196 34.9869 29.8196C34.9869 29.8196 43.0826 36.4351 50.357 35.481C59.4451 34.2892 69.9846 18.3867 57.1857 6.72689C51.5207 1.56603 44.504 -0.430073 37.5262 0.0761295H0C0 3.20286 2.53471 5.73757 5.66144 5.73757H5.95941C5.95941 8.37061 8.09391 10.5051 10.7269 10.5051H15.9478C8.22019 18.6662 -6.19886 47.6578 3.27761 65.2781C12.8127 83.0073 38.4136 79.2827 47.7996 73.4723Z" fill="url(#paint4_linear)"/>
</mask>
<g mask="url(#mask0)">
<path d="M63.3188 30.1712C60.935 18.5503 46.5828 16.6632 41.418 17.2094C31.585 19.7422 30.393 31.3631 30.0951 32.406C29.8567 33.2403 33.9687 40.6001 36.0545 44.1758C47.874 43.4805 65.752 42.0334 63.3188 30.1712Z" fill="#D2D2D2"/>
<path d="M43.2054 -0.370833C57.508 6.30371 56.4651 14.2297 54.6773 21.679C60.7361 23.4172 72.1979 28.0854 72.5555 27.4894C72.9131 26.8935 75.0882 12.5413 76.1311 5.43963C59.2461 0.47345 28.9028 -7.04537 43.2054 -0.370833Z" fill="url(#paint5_linear)"/>
<path fill-rule="evenodd" clip-rule="evenodd" d="M54.2091 19.4724C53.7858 25.0989 50.0005 36.1911 39.4807 39.2594C31.5717 41.5661 45.6823 42.5639 56.7674 40.6959C57.6472 40.3184 58.4666 39.8978 59.2098 39.4282L63.2191 29.7218C61.9875 24.5213 58.3092 21.3378 54.2091 19.4724Z" fill="url(#paint6_linear)"/>
<path d="M9.98208 59.6702C1.93686 23.4668 27.1154 5.29057 39.928 3.50275C33.8494 8.62785 33.323 34.293 32.1808 50.1351L9.98208 59.6702Z" fill="url(#paint7_linear)"/>
<path d="M2.08572 62.0541C13.8854 70.3972 26.9663 70.9931 33.3727 70.9931C55.3033 70.9931 61.3819 80.8262 63.3187 87.3816C46.1357 91.5532 11.4717 99.8367 10.2799 99.5984C8.79001 99.3004 -12.6638 51.6251 2.08572 62.0541Z" fill="url(#paint8_linear)"/>
<path d="M28.0092 70.0992C14.4656 60.6776 17.6796 38.6633 21.4539 28.0854L29.4991 47.0065L54.6776 66.3746C51.0027 69.9999 45.1426 82.018 28.0092 70.0992Z" fill="url(#paint9_linear)"/>
</g>
<path d="M39.4813 6.4376C33.6411 5.24572 29.9959 14.5821 28.9033 19.3993L37.8424 17.6564C41.1698 13.8324 45.3215 7.62949 39.4813 6.4376Z" fill="#69E2F4"/>
<circle cx="36.2032" cy="9.46219" r="2.53275" fill="white"/>
<path d="M92.7105 43.7371C90.2281 43.7371 88.6584 41.9034 88.6584 39.3586C88.6584 36.8139 90.2281 35.0176 92.7105 35.0176C94.4992 35.0176 95.8864 36.1029 96.1785 37.7495H97.5691C99.3645 37.7495 100.946 36.161 100.413 34.4465C100.141 33.5694 99.6904 32.7881 98.8799 32.0986C97.2007 30.6392 95.1198 29.8907 92.674 29.8907C89.8995 29.8907 87.5997 30.7888 85.7379 32.5851C83.9126 34.344 83 36.6268 83 39.3586C83 42.1279 83.9126 44.4481 85.7379 46.207C87.5997 48.0032 89.8995 48.864 92.674 48.864C95.1198 48.864 97.2007 48.1529 98.8799 46.6935C99.6962 45.9991 100.147 45.203 100.419 44.3094C100.942 42.5918 99.3645 41.0052 97.5691 41.0052H96.1785C95.8864 42.6518 94.4992 43.7371 92.7105 43.7371Z" fill="#153141"/>
<path d="M113.266 29.8907C110.455 29.8907 108.155 30.7888 106.33 32.5851C104.541 34.344 103.628 36.6268 103.628 39.3586C103.628 42.1279 104.541 44.4481 106.33 46.2818C108.155 48.1155 110.455 49.0136 113.266 49.0136C116.04 49.0136 118.34 48.1155 120.129 46.2818C121.918 44.4481 122.83 42.1279 122.83 39.3586C122.83 36.6268 121.918 34.344 120.129 32.5851C118.34 30.7888 116.04 29.8907 113.266 29.8907ZM113.266 43.7745C110.893 43.7745 109.25 41.9034 109.25 39.396C109.25 37.001 110.893 35.1299 113.266 35.1299C115.602 35.1299 117.245 37.001 117.245 39.396C117.245 41.9034 115.602 43.7745 113.266 43.7745Z" fill="#153141"/>
<path d="M147.252 29.741C144.843 29.741 142.762 30.5643 140.973 32.2109C139.586 30.5643 137.761 29.741 135.497 29.741C133.781 29.741 132.358 30.2649 131.153 31.3502V27.6766C127.867 27.6766 125.203 30.3407 125.203 33.627V48.4523C128.489 48.4523 131.153 45.7882 131.153 42.5019V36.8139C131.92 35.7661 132.796 35.2421 133.781 35.2421C135.789 35.2421 136.957 36.5145 136.957 39.0592V48.4523C140.224 48.4523 142.871 45.8046 142.871 42.5384V38.0863C142.871 37.7869 142.835 37.3378 142.798 36.739C143.601 35.7286 144.514 35.2421 145.5 35.2421C147.508 35.2421 148.676 36.5145 148.676 39.0592V48.4523C151.942 48.4523 154.59 45.8046 154.59 42.5384V38.0863C154.59 35.5415 153.896 33.5207 152.545 32.0238C151.195 30.4895 149.406 29.741 147.252 29.741Z" fill="#153141"/>
<path d="M168.721 29.8907C166.932 29.8907 165.326 30.3398 163.903 31.2379V27.6766C160.616 27.6766 157.952 30.3407 157.952 33.627V56.8724C161.238 56.8724 163.903 54.2083 163.903 50.922V47.4793C165.326 48.3775 166.932 48.8265 168.721 48.8265C171.131 48.8265 173.211 47.9284 174.927 46.0947C176.643 44.261 177.519 42.0156 177.519 39.3586C177.519 36.7016 176.643 34.4563 174.927 32.6226C173.211 30.7888 171.131 29.8907 168.721 29.8907ZM167.553 43.8493C166.056 43.8493 164.852 43.288 163.903 42.2027V36.5145C164.888 35.3918 166.093 34.8305 167.553 34.8305C169.926 34.8305 171.715 36.8139 171.715 39.3586C171.715 41.9034 169.926 43.8493 167.553 43.8493Z" fill="#153141"/>
<path d="M198.949 33.5905C198.949 30.3244 196.301 27.6766 193.035 27.6766V31.2753C191.611 30.3398 190.005 29.8907 188.18 29.8907C185.77 29.8907 183.689 30.7888 181.974 32.6226C180.258 34.4563 179.382 36.7016 179.382 39.3586C179.382 42.0156 180.258 44.261 181.974 46.0947C183.689 47.9284 185.77 48.8265 188.18 48.8265C190.005 48.8265 191.611 48.3775 193.035 47.4419V48.4523H198.949V33.5905ZM189.384 43.8493C187.011 43.8493 185.186 41.9034 185.186 39.3586C185.186 36.8139 187.011 34.8305 189.384 34.8305C190.808 34.8305 192.049 35.3918 193.035 36.5145V42.1653C192.049 43.288 190.844 43.8493 189.384 43.8493Z" fill="#153141"/>
<path d="M214.464 35.3715C214.464 30.9564 211.695 29.3458 208.368 32.2483V27.6766C205.082 27.6766 202.418 30.3407 202.418 33.6271V48.4523C205.704 48.4523 208.368 45.7882 208.368 42.5019V38.0488C209.792 36.6268 211.799 35.8783 214.464 35.7661V35.3715Z" fill="#153141"/>
<path d="M228.89 35.7661C228.89 31.6713 225.879 29.5564 222.793 32.2483V27.6766C219.507 27.6766 216.843 30.3407 216.843 33.627V48.4523C220.129 48.4523 222.793 45.7882 222.793 42.5019V38.0488C224.217 36.6268 226.225 35.8783 228.89 35.7661Z" fill="#153141"/>
<path d="M239.978 29.8907C237.168 29.8907 234.868 30.7888 233.042 32.5851C231.254 34.344 230.341 36.6268 230.341 39.3586C230.341 42.1279 231.254 44.4481 233.042 46.2818C234.868 48.1155 237.168 49.0136 239.978 49.0136C242.753 49.0136 245.053 48.1155 246.842 46.2818C248.63 44.4481 249.543 42.1279 249.543 39.3586C249.543 36.6268 248.63 34.344 246.842 32.5851C245.053 30.7888 242.753 29.8907 239.978 29.8907ZM239.978 43.7745C237.606 43.7745 235.963 41.9034 235.963 39.396C235.963 37.001 237.606 35.1299 239.978 35.1299C242.315 35.1299 243.958 37.001 243.958 39.396C243.958 41.9034 242.315 43.7745 239.978 43.7745Z" fill="#153141"/>
<path d="M264.343 42.9886C262.846 43.288 261.788 43.4377 261.203 43.4377C259.342 43.4377 258.429 42.5395 258.429 40.7058V35.5041H264.452C264.452 32.6313 262.124 30.3024 259.251 30.3024H258.429V24.1276C255.163 24.1276 252.515 26.7754 252.515 30.0415V30.3024V35.5041V40.8929C252.515 43.3254 253.136 45.3088 254.45 46.8057C255.728 48.2652 257.48 49.0136 259.634 49.0136C259.732 49.0136 259.83 49.0127 259.928 49.0107C262.923 48.9514 264.724 45.9602 264.343 42.9886Z" fill="#153141"/>
<defs>
<linearGradient id="paint0_linear" x1="53.9327" y1="44.4737" x2="33.3727" y2="76.6545" gradientUnits="userSpaceOnUse">
<stop stop-color="#397ACB"/>
<stop offset="1" stop-color="#5CC6E9"/>
</linearGradient>
<linearGradient id="paint1_linear" x1="49.3522" y1="75.7483" x2="54.7381" y2="64.1084" gradientUnits="userSpaceOnUse">
<stop stop-color="#266FC2"/>
<stop offset="1" stop-color="#266FC2" stop-opacity="0"/>
</linearGradient>
<linearGradient id="paint2_linear" x1="32.0738" y1="67.1293" x2="50.7176" y2="46.7687" gradientUnits="userSpaceOnUse">
<stop stop-color="#679DDC"/>
<stop offset="1" stop-color="#45B9EE" stop-opacity="0"/>
</linearGradient>
<linearGradient id="paint3_linear" x1="51.1089" y1="0.0761385" x2="19.2268" y2="86.467" gradientUnits="userSpaceOnUse">
<stop stop-color="#6FF0F9"/>
<stop offset="1" stop-color="#3067C4"/>
</linearGradient>
<linearGradient id="paint4_linear" x1="51.1089" y1="0.0761385" x2="19.2268" y2="86.467" gradientUnits="userSpaceOnUse">
<stop stop-color="#6FF0F9"/>
<stop offset="1" stop-color="#3067C4"/>
</linearGradient>
<linearGradient id="paint5_linear" x1="50.3567" y1="0.374115" x2="58.8489" y2="22.8709" gradientUnits="userSpaceOnUse">
<stop stop-color="white" stop-opacity="0.19"/>
<stop offset="1" stop-color="#65DAF1" stop-opacity="0.44"/>
</linearGradient>
<linearGradient id="paint6_linear" x1="57.5428" y1="22.8142" x2="46.2939" y2="41.1746" gradientUnits="userSpaceOnUse">
<stop stop-color="#FFFCF3"/>
<stop offset="1" stop-color="#DADAD8"/>
</linearGradient>
<linearGradient id="paint7_linear" x1="37.3953" y1="3.35375" x2="11.6209" y2="61.458" gradientUnits="userSpaceOnUse">
<stop stop-color="#92F2FF"/>
<stop offset="1" stop-color="#70AEF2" stop-opacity="0"/>
</linearGradient>
<linearGradient id="paint8_linear" x1="-0.893974" y1="63.246" x2="43.5036" y2="76.3567" gradientUnits="userSpaceOnUse">
<stop stop-color="#145CAC"/>
<stop offset="1" stop-color="#4AA2FF" stop-opacity="0"/>
</linearGradient>
<linearGradient id="paint9_linear" x1="19.3681" y1="31.214" x2="37.4148" y2="74.4876" gradientUnits="userSpaceOnUse">
<stop stop-color="#68DFF3"/>
<stop offset="1" stop-color="white" stop-opacity="0"/>
</linearGradient>
</defs>
</svg>
