<svg width="24" height="24" viewBox="0 0 24 24" fill="none" xmlns="http://www.w3.org/2000/svg">
<path d="M11.7646 19.8788C11.7646 19.8788 2.38965 14.6288 2.38965 8.25379C2.38984 7.12704 2.78026 6.03514 3.49453 5.16371C4.20881 4.29229 5.20284 3.69514 6.30764 3.4738C7.41243 3.25245 8.55979 3.42057 9.55464 3.94957C10.5495 4.47857 11.3304 5.3358 11.7647 6.37551L11.7646 6.37552C12.1989 5.33581 12.9798 4.47858 13.9747 3.94958C14.9695 3.42057 16.1169 3.25245 17.2217 3.4738C18.3264 3.69514 19.3205 4.29229 20.0348 5.16371C20.749 6.03513 21.1395 7.12704 21.1396 8.25379C21.1396 14.6288 11.7646 19.8788 11.7646 19.8788Z" stroke="white" stroke-width="1.4" stroke-linecap="round" stroke-linejoin="round"/>
</svg>
