<svg width="20" height="20" viewBox="0 0 20 20" fill="none" xmlns="http://www.w3.org/2000/svg">
<path d="M7.49965 16.2488H5.62465C5.00421 16.2482 4.391 16.1156 3.82571 15.8599C3.26042 15.6042 2.75598 15.2311 2.34589 14.7656C1.93579 14.3 1.62941 13.7525 1.44708 13.1595C1.26475 12.5664 1.21065 11.9414 1.28836 11.3258C1.36607 10.7103 1.57382 10.1183 1.89781 9.58915C2.22181 9.06002 2.65464 8.60586 3.16758 8.25681C3.68052 7.90776 4.26183 7.6718 4.87294 7.56459C5.48405 7.45738 6.11097 7.48138 6.71209 7.63499" stroke="white" stroke-width="1.4" stroke-linecap="round" stroke-linejoin="round"/>
<path d="M6.25 9.99878C6.2501 9.00849 6.48551 8.03241 6.93683 7.15095C7.38815 6.26949 8.04247 5.50789 8.84587 4.92891C9.64927 4.34993 10.5787 3.97014 11.5577 3.82083C12.5367 3.67153 13.5371 3.75699 14.4766 4.07017C15.416 4.38335 16.2676 4.91528 16.9612 5.62213C17.6547 6.32899 18.1704 7.19053 18.4657 8.13577C18.761 9.081 18.8274 10.0829 18.6596 11.0588C18.4917 12.0348 18.0943 12.9569 17.5002 13.7491" stroke="white" stroke-width="1.4" stroke-linecap="round" stroke-linejoin="round"/>
<path d="M9.22363 12.6505L11.8753 9.99875L14.5269 12.6505" stroke="white" stroke-width="1.4" stroke-linecap="round" stroke-linejoin="round"/>
<path d="M11.875 16.2488V9.99878" stroke="white" stroke-width="1.4" stroke-linecap="round" stroke-linejoin="round"/>
</svg>
