<svg width="24" height="24" viewBox="0 0 24 24" fill="none" xmlns="http://www.w3.org/2000/svg">
<path d="M11.7649 19.8788C11.7649 19.8788 2.38989 14.6288 2.38989 8.25379C2.39008 7.12704 2.7805 6.03514 3.49478 5.16371C4.20905 4.29229 5.20309 3.69514 6.30788 3.4738C7.41268 3.25245 8.56003 3.42057 9.55488 3.94957C10.5497 4.47857 11.3307 5.3358 11.7649 6.37551L11.7649 6.37552C12.1991 5.33581 12.9801 4.47858 13.9749 3.94958C14.9697 3.42057 16.1171 3.25245 17.2219 3.4738C18.3267 3.69514 19.3207 4.29229 20.035 5.16371C20.7493 6.03513 21.1397 7.12704 21.1399 8.25379C21.1399 14.6288 11.7649 19.8788 11.7649 19.8788Z" fill="white"/>
</svg>
