<svg width="24" height="24" viewBox="0 0 24 24" fill="none" xmlns="http://www.w3.org/2000/svg">
<path d="M12.1899 10.642V13.9H17.5779C17.3309 15.1211 16.6478 16.2106 15.6564 16.9651C14.6649 17.7195 13.4328 18.0874 12.1899 18C10.5986 18 9.07252 17.3679 7.9473 16.2426C6.82208 15.1174 6.18994 13.5913 6.18994 12C6.18994 10.4087 6.82208 8.88258 7.9473 7.75736C9.07252 6.63214 10.5986 6 12.1899 6C13.596 5.97074 14.957 6.49674 15.9779 7.464L18.5539 4.979C16.834 3.3592 14.5524 2.47042 12.1899 2.5C9.67038 2.5 7.25402 3.50089 5.47243 5.28248C3.69083 7.06408 2.68994 9.48044 2.68994 12C2.68994 14.5196 3.69083 16.9359 5.47243 18.7175C7.25402 20.4991 9.67038 21.5 12.1899 21.5C17.6729 21.5 21.3099 17.645 21.3099 12.217C21.3084 11.6885 21.2582 11.1613 21.1599 10.642H12.1899Z" fill="white"/>
</svg>
