<svg width="24" height="24" viewBox="0 0 24 24" fill="none" xmlns="http://www.w3.org/2000/svg">
<path d="M14.3276 19.1281V14.628C14.3276 14.4291 14.2486 14.2383 14.1079 14.0977C13.9673 13.957 13.7765 13.878 13.5776 13.878H10.5776C10.3787 13.878 10.1879 13.957 10.0472 14.0977C9.90659 14.2383 9.82758 14.4291 9.82758 14.628V19.1281C9.82758 19.327 9.74857 19.5177 9.60794 19.6584C9.46731 19.799 9.27657 19.8781 9.07767 19.8781L4.57822 19.8787C4.47972 19.8787 4.38218 19.8593 4.29118 19.8216C4.20017 19.7839 4.11748 19.7287 4.04783 19.659C3.97817 19.5894 3.92292 19.5067 3.88522 19.4157C3.84753 19.3247 3.82812 19.2272 3.82813 19.1287V10.4605C3.82812 10.356 3.84996 10.2527 3.89223 10.1571C3.93449 10.0616 3.99626 9.9759 4.07357 9.90561L11.5731 3.08672C11.7111 2.9612 11.891 2.89164 12.0776 2.89163C12.2642 2.89163 12.4441 2.96117 12.5821 3.08669L20.0826 9.9056C20.16 9.9759 20.2217 10.0616 20.264 10.1571C20.3063 10.2527 20.3281 10.3561 20.3281 10.4605V19.1287C20.3281 19.2272 20.3087 19.3247 20.271 19.4157C20.2333 19.5067 20.1781 19.5894 20.1084 19.659C20.0388 19.7287 19.9561 19.7839 19.8651 19.8216C19.7741 19.8593 19.6765 19.8787 19.578 19.8787L15.0775 19.8781C14.8786 19.8781 14.6878 19.799 14.5472 19.6584C14.4066 19.5177 14.3276 19.327 14.3276 19.1281Z" fill="white"/>
</svg>
