<svg width="24" height="24" viewBox="0 0 24 24" fill="none" xmlns="http://www.w3.org/2000/svg">
<path d="M4.55664 13.0188V19.4324C4.55664 19.6313 4.63566 19.8221 4.77631 19.9627C4.91696 20.1034 5.10773 20.1824 5.30664 20.1824H18.8066C19.0056 20.1824 19.1963 20.1034 19.337 19.9627C19.4776 19.8221 19.5566 19.6313 19.5566 19.4324V13.0189" stroke="white" stroke-width="1.4" stroke-linecap="round" stroke-linejoin="round"/>
<path d="M5.12237 3.68237H18.9909C19.1539 3.68237 19.3124 3.73546 19.4426 3.83361C19.5727 3.93176 19.6673 4.06962 19.7121 4.22633L21.0566 8.93237H3.05664L4.40122 4.22633C4.446 4.06962 4.5406 3.93176 4.67072 3.83361C4.80084 3.73546 4.95938 3.68237 5.12237 3.68237Z" stroke="white" stroke-width="1.4" stroke-linecap="round" stroke-linejoin="round"/>
<path d="M9.05664 8.93237V10.4324C9.05664 11.228 8.74057 11.9911 8.17796 12.5537C7.61535 13.1163 6.85229 13.4324 6.05664 13.4324C5.26099 13.4324 4.49793 13.1163 3.93532 12.5537C3.37271 11.9911 3.05664 11.228 3.05664 10.4324V8.93237" stroke="white" stroke-width="1.4" stroke-linecap="round" stroke-linejoin="round"/>
<path d="M15.0566 8.93237V10.4324C15.0566 11.228 14.7406 11.9911 14.178 12.5537C13.6154 13.1163 12.8523 13.4324 12.0566 13.4324C11.261 13.4324 10.4979 13.1163 9.93532 12.5537C9.37271 11.9911 9.05664 11.228 9.05664 10.4324V8.93237" stroke="white" stroke-width="1.4" stroke-linecap="round" stroke-linejoin="round"/>
<path d="M21.0566 8.93237V10.4324C21.0566 11.228 20.7406 11.9911 20.178 12.5537C19.6154 13.1163 18.8523 13.4324 18.0566 13.4324C17.261 13.4324 16.4979 13.1163 15.9353 12.5537C15.3727 11.9911 15.0566 11.228 15.0566 10.4324V8.93237" stroke="white" stroke-width="1.4" stroke-linecap="round" stroke-linejoin="round"/>
</svg>
