<svg width="24" height="24" viewBox="0 0 24 24" fill="none" xmlns="http://www.w3.org/2000/svg">
<path d="M4.55676 13.0188V19.4324C4.55676 19.6313 4.63578 19.8221 4.77643 19.9627C4.91709 20.1034 5.10785 20.1824 5.30676 20.1824H18.8068C19.0057 20.1824 19.1964 20.1034 19.3371 19.9627C19.4777 19.8221 19.5568 19.6313 19.5568 19.4324V13.0189" stroke="white" stroke-width="1.4" stroke-linecap="round" stroke-linejoin="round"/>
<path d="M5.12249 3.68237H18.991C19.154 3.68237 19.3126 3.73546 19.4427 3.83361C19.5728 3.93176 19.6674 4.06962 19.7122 4.22633L21.0568 8.93237H3.05676L4.40135 4.22633C4.44612 4.06962 4.54073 3.93176 4.67084 3.83361C4.80096 3.73546 4.95951 3.68237 5.12249 3.68237Z" fill="white"/>
<path d="M9.05676 8.93237V10.4324C9.05676 11.228 8.74069 11.9911 8.17808 12.5537C7.61547 13.1163 6.85241 13.4324 6.05676 13.4324C5.26111 13.4324 4.49805 13.1163 3.93544 12.5537C3.37283 11.9911 3.05676 11.228 3.05676 10.4324V8.93237" fill="white"/>
<path d="M15.0568 8.93237V10.4324C15.0568 11.228 14.7407 11.9911 14.1781 12.5537C13.6155 13.1163 12.8524 13.4324 12.0568 13.4324C11.2611 13.4324 10.4981 13.1163 9.93544 12.5537C9.37283 11.9911 9.05676 11.228 9.05676 10.4324V8.93237" fill="white"/>
<path d="M21.0568 8.93237V10.4324C21.0568 11.228 20.7407 11.9911 20.1781 12.5537C19.6155 13.1163 18.8524 13.4324 18.0568 13.4324C17.2611 13.4324 16.4981 13.1163 15.9354 12.5537C15.3728 11.9911 15.0568 11.228 15.0568 10.4324V8.93237" fill="white"/>
</svg>
